<?xml version="1.0" encoding="UTF-8"?>
<svg id="Layer_1" data-name="Layer 1" xmlns="http://www.w3.org/2000/svg" viewBox="0 0 563.23 596.82">
  <defs>
    <style>
      .cls-1 {
        fill: #ffb6b6;
      }

      .cls-2 {
        fill: #2f2e41;
      }

      .cls-3 {
        fill: #fff;
      }

      .cls-4 {
        fill: #3f3d56;
      }

      .cls-5 {
        fill: #e6e6e6;
      }

      .cls-6 {
        fill: #fbbf24;
      }

      .cls-7 {
        isolation: isolate;
        opacity: .2;
      }

      .cls-8 {
        fill: #f2f2f2;
      }
    </style>
  </defs>
  <circle class="cls-6" cx="215.61" cy="68.27" r="26.7"/>
  <path class="cls-5" d="m275.37,55.62c-1.54-5.05-5.93-8.7-11.17-9.29-.06,0-.12,0-.18,0-.07-.02-.15-.04-.22-.05-8.94-1.16-18.88,1.66-25.57,7.8-2.48,2.24-4.47,4.98-5.83,8.04-2.52-3.44-6.57-5.41-10.83-5.28-5.54.37-10.26,4.17-11.8,9.51-.17.65.11,1.34.69,1.69.8.69,1.76,1.17,2.79,1.42,2.21.47,4.44.9,6.67,1.29,4.36.76,8.74,1.38,13.15,1.85,2.91.31,5.83.56,8.75.74,6.04.38,12.11.47,18.16.28,3-.1,5.88-.2,8.62-1.52,2-.98,3.7-2.47,4.95-4.31,2.38-3.59,3.04-8.04,1.82-12.17Z"/>
  <path class="cls-5" d="m220.44,94.52c-.05-1.12-.24-2.23-.56-3.3-1.55-5.05-5.94-8.69-11.18-9.29-.06,0-.11,0-.17,0-.08-.02-.15-.04-.23-.05-4.95-.61-9.97-.09-14.69,1.51-7.26,2.43-13.63,7.33-16.7,14.33-2.52-3.44-6.58-5.42-10.84-5.28-5.54.37-10.26,4.17-11.8,9.51-.16.65.12,1.34.69,1.69.81.69,1.76,1.17,2.79,1.42,2.22.47,4.44.9,6.68,1.29,4.36.76,8.74,1.38,13.14,1.85,8.94.96,17.93,1.3,26.92,1.02,2.99-.1,5.88-.2,8.62-1.52,1.99-.98,3.7-2.47,4.94-4.31,1.75-2.61,2.59-5.73,2.39-8.87Z"/>
  <path class="cls-8" d="m418.13,431.48h-24.34V51.51c-1.64-1.21-3.29-2.41-4.96-3.58-.33-.23-.66-.46-.99-.69-19.25-13.47-40.08-24.53-62.01-32.94l-4.72,65.1h0s-30.37,0-30.37,0V3.39c-1.98-.49-3.96-.95-5.96-1.38v77.39h-114.68V0c-1.99.37-3.98.75-5.96,1.16v78.24h-31.37s-4.95-68.27-4.95-68.27c-21.35,7.4-41.75,17.29-60.78,29.46-.66.42-1.32.84-1.98,1.28-1.33.86-2.66,1.74-3.97,2.63v386.98H26.82C12.02,431.47,0,443.46,0,458.27c0,3.43.65,6.82,1.93,10,.49,1.23,1.08,2.42,1.75,3.56.87,1.49,1.88,2.89,3.02,4.18,5.08,5.79,12.41,9.11,20.12,9.11h391.31c14.81,0,26.82-12.01,26.82-26.82s-12.01-26.82-26.82-26.82h0Zm-103.56-261.7l-18.93,261.7h-137.4l-18.93-261.7h175.26Zm6.11-84.42l-4.67,64.56h-25.27v-64.56h29.94Zm-35.9,0v64.56h-45.63c-1.86-3.66-5.62-5.96-9.72-5.96h-5.96c-4.1,0-7.86,2.3-9.72,5.96h-43.64v-64.56h114.68Zm-120.64,64.56h-26.27l-4.67-64.56h30.94v64.56Z"/>
  <path class="cls-4" d="m2.37,474.73c8.69,10.29,18.08,19.97,28.12,28.95l379.58,1c10.04-8.98,19.43-18.66,28.12-28.95l-435.82-1Z"/>
  <path class="cls-2" d="m194.06,377.92v102.56h71.85v-102.56c0-1.51-.98-2.85-2.43-3.3-.33-.11-.68-.16-1.03-.16h-64.92c-1.91,0-3.47,1.54-3.47,3.46h0Zm28.04,35.24c.04-4.24,3.5-7.64,7.74-7.6,4.18.04,7.56,3.42,7.6,7.6v11.9c-.02,4.24-3.47,7.65-7.71,7.63-4.21-.02-7.61-3.43-7.63-7.63v-11.9Z"/>
  <path class="cls-4" d="m193.84,477.2v9.89c0,1.07.86,1.93,1.93,1.94h68.43c1.07,0,1.93-.87,1.93-1.94v-9.89h-72.29Z"/>
  <path class="cls-4" d="m81.03,223.4v187.26c0,4.97,4.03,9,9,9h277.5c4.97,0,9-4.03,9-9v-187.26c-.01-4.96-4.04-8.98-9-8.99H90.03c-4.96,0-8.99,4.03-9,8.99Z"/>
  <path class="cls-6" d="m87.54,225.73v182.62c0,2.65,2.16,4.81,4.81,4.81h272.87c2.65,0,4.81-2.16,4.81-4.81v-182.62c0-2.66-2.15-4.81-4.81-4.82H92.35c-2.66,0-4.81,2.16-4.81,4.82Z"/>
  <path class="cls-2" d="m143.18,491.36c.56.71,1.42,1.11,2.32,1.11h162.34c1.65,0,2.99-1.34,2.98-2.99,0-.2-.02-.41-.06-.61l-2.52-11.97c-.21-.99-.91-1.81-1.86-2.17-.34-.13-.7-.2-1.06-.2h-157.31c-.36,0-.72.07-1.06.2-.95.36-1.65,1.18-1.86,2.17l-2.52,11.97c-.18.88.04,1.79.61,2.49Z"/>
  <path class="cls-3" d="m148.01,477.03s-.1,0-.14.03c-.16.06-.28.19-.33.35l-2.52,11.98c-.03.14.01.29.1.4h.01c.09.13.23.19.37.19h162.34c.14,0,.28-.06.37-.17.1-.11.14-.26.11-.4l-2.52-11.98c-.04-.16-.15-.29-.3-.35-.05-.02-.11-.03-.17-.04h-157.31Z"/>
  <path class="cls-4" d="m101.12,246.06h255.32c.56-.01,1.01-.48.99-1.04-.01-.54-.45-.98-.99-.99H101.12c-.56.01-1.01.48-.99,1.04.01.54.45.98.99.99Z"/>
  <ellipse class="cls-4" cx="339.06" cy="232.77" rx="5.95" ry="6.08"/>
  <ellipse class="cls-4" cx="318.51" cy="232.77" rx="5.95" ry="6.08"/>
  <ellipse class="cls-4" cx="297.95" cy="232.77" rx="5.95" ry="6.08"/>
  <path class="cls-4" d="m112.41,229.3c0,.6.48,1.1,1.09,1.1h14.6c.61-.01,1.09-.52,1.08-1.13-.01-.59-.49-1.07-1.08-1.08h-14.6c-.61,0-1.09.5-1.09,1.11Z"/>
  <path class="cls-4" d="m112.41,233.45c0,.6.48,1.1,1.09,1.1h14.6c.61-.01,1.09-.52,1.08-1.13-.01-.59-.49-1.07-1.08-1.08h-14.6c-.61,0-1.09.5-1.09,1.11Z"/>
  <path class="cls-4" d="m112.41,237.59c0,.61.48,1.1,1.09,1.11h14.6c.61-.01,1.09-.52,1.08-1.13-.01-.59-.49-1.07-1.08-1.08h-14.6c-.6,0-1.09.49-1.09,1.1h0Z"/>
  <path class="cls-4" d="m318.4,277.06h-179.24c-4.9,0-8.88,3.98-8.88,8.88v87.24c0,4.9,3.98,8.88,8.88,8.88h179.24c4.9,0,8.88-3.98,8.88-8.88v-87.24c0-4.9-3.98-8.88-8.88-8.88Zm6.88,8.88v25.45h-63v-32.33h56.12c3.8,0,6.88,3.08,6.88,6.88h0Zm-128,59.79v-32.33h63v32.33h-63Zm63,2v32.33h-63v-32.33h63Zm-65-2h-63v-32.33h63v32.33Zm2-34.33v-32.33h63v32.33h-63Zm65,2h63v32.33h-63v-32.33Zm-123.12-34.33h56.12v32.33h-63v-25.45c0-3.8,3.08-6.88,6.88-6.88h0Zm-6.88,94.12v-25.45h63v32.33h-56.12c-3.8,0-6.88-3.08-6.88-6.88Zm186.12,6.88h-56.12v-32.33h63v25.45c0,3.8-3.08,6.88-6.88,6.88h0Z"/>
  <path class="cls-3" d="m219.67,299.21c-1.59-2.63-3.48-5.44-6.43-6.3-3.42-.99-6.93.98-9.91,2.93-8.91,5.83-17.49,12.15-25.69,18.93v.1s19.18-1.32,19.18-1.32c4.62-.32,9.39-.68,13.47-2.87,1.55-.83,3.06-1.94,4.81-2.01,2.18-.1,4.08,1.43,5.57,3.02,8.84,9.41,11.39,23.8,21.31,32.07-6.25-15.42-13.72-30.31-22.32-44.55Z"/>
  <path class="cls-3" d="m273.99,379.02c-.98-1.23-1.38-1.52-2.34-2.77-7.85-10.15-15.23-20.64-22.13-31.48-4.69-7.36-9.15-14.86-13.37-22.5-2.01-3.63-3.97-7.3-5.87-10.99-1.48-2.86-2.92-5.74-4.33-8.64-.4-.83-.79-1.66-1.18-2.49-.92-1.96-1.82-3.93-2.79-5.86-1-2.32-2.53-4.37-4.47-5.99-.92-.7-2.02-1.12-3.18-1.22-1.62,0-3.22.47-4.6,1.32-10.47,5.5-20.24,12.24-29.11,20.08-8.88,7.8-16.82,16.61-23.65,26.25-.21.3-.7.01-.49-.29.83-1.17,1.68-2.34,2.54-3.49,10.74-14.28,23.91-26.57,38.91-36.29,2.52-1.64,5.09-3.19,7.71-4.68,1.32-.75,2.64-1.48,3.99-2.18,1.29-.76,2.74-1.21,4.23-1.31,5.14-.08,7.8,5.74,9.62,9.65.57,1.23,1.16,2.46,1.74,3.68,2.22,4.65,4.53,9.25,6.92,13.82,1.48,2.82,2.99,5.62,4.53,8.4,4.8,8.67,9.9,17.17,15.3,25.49,7.16,11.02,14.26,20.76,22.41,31.06.22.29-.18.69-.4.4Z"/>
  <path class="cls-3" d="m180.11,305.6c-.3-.33-.6-.67-.9-1-2.37-2.62-4.91-5.21-8.16-6.71-1.55-.74-3.24-1.13-4.96-1.15-1.77.05-3.52.43-5.15,1.12-.78.31-1.53.66-2.28,1.04-.85.43-1.69.89-2.53,1.35-1.57.87-3.11,1.77-4.64,2.71-3.04,1.88-5.98,3.9-8.82,6.06-1.48,1.12-2.92,2.28-4.33,3.48-1.32,1.11-2.6,2.25-3.87,3.42-.27.25-.67-.15-.4-.4.33-.31.67-.62,1.01-.92.95-.86,1.92-1.7,2.9-2.53,1.79-1.51,3.62-2.96,5.51-4.35,2.93-2.17,5.95-4.19,9.08-6.06,1.56-.94,3.15-1.83,4.75-2.69.48-.26.98-.51,1.47-.75,1.13-.57,2.3-1.04,3.5-1.42,1.7-.55,3.51-.73,5.28-.52,1.72.25,3.37.82,4.87,1.69,3.19,1.79,5.67,4.55,8.08,7.24.24.27-.16.68-.4.4Z"/>
  <path class="cls-3" d="m245.56,332.75l7.65-2.8,3.8-1.39c1.23-.49,2.48-.93,3.75-1.29,1.11-.32,2.29-.3,3.4.04.98.36,1.88.92,2.65,1.64.78.72,1.51,1.49,2.17,2.32.83.99,1.64,2,2.46,3,3.38,4.13,6.74,8.28,10.07,12.45,3.34,4.17,6.65,8.35,9.94,12.56,3.3,4.21,6.57,8.45,9.83,12.7.4.52.8,1.04,1.19,1.56.22.29.72,0,.49-.29-3.28-4.29-6.58-8.57-9.9-12.82-3.33-4.27-6.69-8.52-10.06-12.75-3.38-4.23-6.78-8.44-10.2-12.64-.85-1.04-1.71-2.09-2.56-3.13-.72-.88-1.44-1.77-2.23-2.59-1.36-1.64-3.32-2.67-5.44-2.87-1.27.04-2.53.32-3.7.81-1.28.46-2.56.93-3.83,1.4l-7.71,2.82-1.93.7c-.34.13-.19.68.15.55h0Z"/>
  <path class="cls-3" d="m170.05,301.19c-4-1.97-8.76-1.63-12.44.89,6.82,1.18,13.56,2.75,20.19,4.71-2.75-1.61-4.91-4.14-7.75-5.6Z"/>
  <path class="cls-3" d="m157.56,302.07l-.75.61c.25-.21.52-.41.79-.6h-.04Z"/>
  <path class="cls-3" d="m266.52,332.78c-.67-.99-1.6-1.77-2.69-2.25l-1.05.04c8.01,14.15,18.83,26.52,31.79,36.34l-28.04-34.13Z"/>
  <circle class="cls-3" cx="261.6" cy="311.23" r="6.06"/>
  <path class="cls-4" d="m349.52,378.56c2.48,0,4.5-2.02,4.5-4.5v-93c0-2.49-2.01-4.5-4.5-4.5s-4.5,2.01-4.5,4.5v93c0,2.48,2.02,4.5,4.5,4.5Z"/>
  <path class="cls-2" d="m349.52,378.56c2.48,0,4.5-2.02,4.5-4.5v-19.72c-1.82-2.49-5.32-3.02-7.8-1.2-.46.34-.86.74-1.2,1.2v19.72c0,2.48,2.02,4.5,4.5,4.5Z"/>
  <path class="cls-6" d="m349.52,359.56c2.67,0,4.84-2.17,4.84-4.84v-21.21c-1.96-2.67-5.72-3.25-8.39-1.29-.49.36-.93.8-1.29,1.29v21.21c0,2.67,2.17,4.84,4.84,4.84Z"/>
  <path class="cls-4" d="m349.52,355.7c1.95,0,3.53-1.58,3.53-3.53v-15.47c-1.43-1.95-4.17-2.37-6.12-.94-.36.26-.68.58-.94.94v15.47c0,1.95,1.58,3.53,3.53,3.53Z"/>
  <path class="cls-6" d="m210.7,483.04c-1.64-1.47-1.79-4-.32-5.65l39.32-43.99c1.47-1.65,4-1.79,5.65-.32s1.79,4,.32,5.65l-39.32,43.99c-1.47,1.64-4,1.79-5.65.32Z"/>
  <path class="cls-5" d="m536.85,555.47c0,7.29-1.72,12.87-1.51,17.33-11.79,5.15-23.92,9.5-36.3,13.02-1.4.4-2.8.78-4.21,1.16-7.63-23.36-15.27-44.75-18.28-47.02-6.89-5.17-10.34,16.22-10.34,11.05s3.45-5.17-5.16-12.06c-8.62-6.89-3.45-37.9-3.45-37.9l-12.06-31.01,13.49-49.46,17.52-64.25h17.23s.51.37,1.36,1.06c4.31,3.52,17.31,15.28,15.87,28.23-.43,3.86.53,15.08,2.2,30.02,5.08,45.11,16.75,94.15,16.75,107.09,0,17.23,6.89,22.4,6.89,32.74Z"/>
  <path class="cls-4" d="m522.4,415.47s-.03-.09-.05-.13c-.39-1.04-.84-2.06-1.35-3.04-2.91-5.47.17-13.87-3.11-23.15-5.3-15.04-11.76-23.91-21.23-31.86-.28-.24-.56-.47-.85-.71h-.01c-6.32-5.2-13.94-10.05-23.4-16.09-1.97-1.26-4.03-2.57-6.17-3.95-2.76-1.77-2.61-7.67-2.45-13.91.18-6.93.37-14.11-3.03-18.59l-.22-.29-.35-.09c-11.66-2.31-23.55-3.22-35.42-2.73h-.01c-5.04.19-10.05.92-14.93,2.19-.36.1-.72.2-1.07.32-.27.07-.54.16-.81.25l-.22.08-.17.16c-3.29,3.29-4.05,9.19-4.41,15.34h0c-.07,1.13-.13,2.25-.18,3.37-.28,5.98-.54,11.63-2.74,14.08-4.91,5.56-10.84,10.12-17.47,13.44-10.33,5.1-18.5,4.94-18.62,4.94l-.95-.03-.09.94c-6.86,13.07-6.6,46.79-6.81,82.9-.01,2.01-.02,4.03-.04,6.06-.12,16.82-.44,33.93-1.7,49.52-.55,6.7-1.26,13.11-2.21,19.1-4.62,29.17-25.55,4.95-35.56,24.36.33,1.91.88,3.77,1.65,5.55,1.15.68,2.33,1.34,3.5,2,5.19,2.89,10.48,5.59,15.86,8.09.3.14.6.28.9.41,9.87,4.57,20.05,8.45,30.46,11.62,2.03.62,4.06,1.21,6.11,1.77,18.13,5.01,36.81,7.8,55.61,8.33.08,0,.15-.01.23-.01,22.24-.61,44.33-3.8,65.84-9.49.3-.08.6-.16.9-.24,1.41-.38,2.81-.76,4.21-1.16,12.38-3.52,24.51-7.87,36.3-13.02.01.44.06.88.13,1.31.01.14.03.28.06.42.02-.16.04-.32.05-.48.06-.47.11-.95.16-1.43,6.12-59.68-6.59-110.35-16.34-136.15Z"/>
  <path class="cls-1" d="m384.97,269.2c14.83,27.13,48.85,37.09,75.98,22.26,27.13-14.83,37.09-48.85,22.26-75.98-14.84-27.13-48.85-37.09-75.98-22.26-11.39,6.23-20.27,16.23-25.1,28.29-.26.64-.49,1.28-.72,1.95-5.41,15.06-4.12,31.71,3.56,45.75Z"/>
  <path class="cls-2" d="m376.92,223.45c2.41-6.74,1.36-3.23,3.79-9.94-1.59,5.95.92,9.28.69,9.94h66.66v-38.75c-19.53-7.74-38.62-14.33-50.15,0-21.4,0-38.75,17.35-38.75,38.75h17.76Z"/>
  <path class="cls-2" d="m400.55,331.17c.05-.72.13-1.46.23-2.18.72-5.28,2.51-10.35,4.33-15.38,1.92-5.41,3.87-10.84,5.82-16.25-2.51,9.82-1.74,20.18,2.18,29.52,11.25-8.76,4.15-28.81,18.86-28.81,35.37,0,71.76-28.68,71.76-64.07s-15.17-61.81-50.54-61.81-64.1,16.2-64.79,51.56c43.57,10.25,3.92,103.82,12.15,107.41Z"/>
  <circle class="cls-2" cx="499.31" cy="187.59" r="41" transform="translate(13.6 408.01) rotate(-45)"/>
  <path class="cls-2" d="m563.23,422.75c-.14,2.11-.26,4.36-.37,6.74-2.12,44.89-.29,105.32-14.58,138.11-3.2,1.75-6.43,3.42-9.7,5.02-.13.06-.25.12-.36.18-.88.43-1.76.85-2.64,1.25-.03.03-.07.05-.11.06-9.66,4.57-19.62,8.48-29.81,11.71-1.25.4-2.51.78-3.77,1.16-.27.08-.54.16-.81.24-19.19,5.68-39.04,8.87-59.04,9.49-1.04.03-2.06.05-3.05.07-.35.01-.69.02-1.03.02-1.12.01-2.23.02-3.35.02-2.26,0-4.51-.03-6.75-.1-18.8-.53-37.48-3.32-55.61-8.33-2.05-.56-4.08-1.15-6.11-1.77-10.41-3.17-20.59-7.05-30.46-11.62-.3-.13-.6-.27-.9-.41-5.38-2.5-10.67-5.2-15.86-8.09-1.17-.66-2.35-1.32-3.5-2-.77-1.78-1.32-3.64-1.65-5.55-2.27-10.91-4.09-3.55-5.39-26.25-1.19-20.81-1.95-41.68-2.23-53.61-.09-3.18-.12-5.73-.13-7.47,1.06-7.58,18.1-16.18,42.95-24.35,2.35-.77,4.78-1.54,7.27-2.3,6.72-2.07,13.9-4.1,21.4-6.06,19.1-5,40.31-9.59,61.36-13.38,10.39-1.86,20.74-3.53,30.79-4.95,17.63-2.5,34.31-4.23,48.58-4.94,1.37-.07,2.71-.13,4.03-.17,1.42-.06,2.81-.1,4.17-.13,20.56-.45,34.6,1.69,36.66,7.41Z"/>
  <path class="cls-7" d="m563.23,422.75c-.14,2.11-.26,4.36-.37,6.74-15.58-16.78-183.42,58.18-254.48,103.21-1.19-20.81-1.95-41.68-2.23-53.61-.09-3.18-.12-5.73-.13-7.47,1.06-7.58,18.1-16.18,42.95-24.35,2.35-.77,4.78-1.54,7.27-2.3,6.72-2.07,13.9-4.1,21.4-6.06,19.1-5,40.31-9.59,61.36-13.38,10.39-1.86,20.74-3.53,30.79-4.95,17.63-2.5,34.31-4.23,48.58-4.94,1.37-.07,2.71-.13,4.03-.17,1.42-.06,2.81-.1,4.17-.13,20.56-.45,34.6,1.69,36.66,7.41Z"/>
  <path class="cls-1" d="m221.9,474.76c5.95,7.5,16.84,8.75,24.34,2.81.8-.63,1.54-1.34,2.22-2.1l56.95,23.39-6.15-31.4-53.14-17.4c-7.61-5.88-18.55-4.47-24.43,3.14-4.92,6.37-4.83,15.28.21,21.56Z"/>
  <path class="cls-4" d="m411.34,344.02l-.31-.03-33.21,2.41c-8.53.62-16.38,4.87-21.56,11.68-1.19,1.56-2.22,3.23-3.08,5h0c-2.86,5.86-3.73,12.5-2.46,18.89l15.63,78.7-37.62-3.42-13.73,2.35-16.2-6.54-33.25.57-.77,2.55-6.98,23.12-.55,1.82,50.78,32,14.72-4.48,6.94,5.33h.33s13.75.28,13.75.28l58.65,1.15,16.03-28.4,2.5-4.45c18.62-41.71,23.21-70.83,21.76-90.89-.76-10.6-3.21-18.66-6.18-24.73-9.17-18.76-24.54-22.74-25.19-22.9Z"/>
  <path class="cls-6" d="m504.49,223.99c-15.8-3.55-28.7-14.94-34.17-30.18-2.41-6.98-3.31-14.64-7.35-20.85,6.15-8.45,11.08-17.72,14.65-27.54,1.38-3.8,4.62-10.71-.87-12.8-4.37-1.67-9.34,2.36-11.93,5.53-1.97,2.4-3.38,5.22-4.13,8.23-.89-3.95-1.79-7.89-2.68-11.84-.24-.79-1.05-1.25-1.85-1.05-7.32,1.25-12.63,8.03-13.55,15.17-.5,3.68.33,7.41,2.36,10.52,2.35,3.58,5.8,6.14,9.07,8.81,3.49,2.84,6.44,5.86,8.31,10,1.95,4.31,2.82,9.03,4.12,13.55,5,17.71,19.28,31.26,37.22,35.33,1.88.41,2.69-2.48.8-2.89Zm-41.35-71.72c-.24-3.77.76-7.51,2.84-10.66,1.04-1.6,2.34-3.01,3.85-4.17,1.43-1.09,3.55-2.54,5.44-2.14,2.46.52,1.47,3.26.95,4.92-.69,2.18-1.45,4.34-2.27,6.48-1.61,4.15-3.48,8.19-5.59,12.11-1.1,2.04-2.27,4.03-3.5,5.99-.84-3.73-1.69-7.46-2.53-11.19.55-.2.89-.75.81-1.33Zm-17.52.6c-1.01-7.03,3.11-13.79,9.82-16.11,2.38,10.51,4.76,21.03,7.14,31.54-.49.72-1,1.44-1.51,2.15-.13-.15-.25-.31-.39-.46-4.99-5.44-13.7-9.14-15.06-17.12Z"/>
</svg>