<?xml version="1.0" encoding="utf-8"?>
<!-- Generator: Adobe Illustrator 27.5.0, SVG Export Plug-In . SVG Version: 6.00 Build 0)  -->
<svg version="1.1" id="Layer_1" xmlns="http://www.w3.org/2000/svg" xmlns:xlink="http://www.w3.org/1999/xlink" x="0px" y="0px"
	 viewBox="0 0 707.4 336.2" style="enable-background:new 0 0 707.4 336.2;" xml:space="preserve">
<style type="text/css">
	.st0{fill:#00F5D4;}
	.st1{fill:#00F5D4;stroke:#00F5D4;stroke-width:17;stroke-miterlimit:10;}
</style>
<path class="st0" d="M44.2,267c-11.1,0-20.6-4.1-28.3-12.3S2.9,235.5,0,221.7l19.6-6.3c1.2,7.3,4,13.5,8.6,18.6s9.8,7.6,15.7,7.6
	c3.8,0,7.7-1.3,11.7-3.8s7-6.7,9.2-12.5c1.5-4,2.3-8.4,2.5-13.3c0.2-4.9,0.3-10.6,0.3-17.2V11.4c0-5.5,1-9.9,6.5-9.9h3.5
	c5.5,0,9.9,4.5,9.9,9.9v183.4c0,6.2,0,11.8-0.1,16.6s-0.4,9.6-1.1,14s-2.1,9-4,13.6c-4,9.5-9.3,16.5-16,21.1S52.3,267,44.2,267
	L44.2,267z"/>
<path class="st0" d="M171.6,267.2c-11.9,0-22.1-3.6-30.7-11c-8.6-7.3-15.2-17.4-19.8-30.3c-4.7-12.9-7-27.7-7-44.4
	s2.4-31.9,7.1-44.7s11.4-22.8,20-29.9c8.6-7.2,18.8-10.7,30.4-10.7s22.2,3.6,30.9,10.9s15.2,17.3,19.9,30.2s6.9,27.6,6.9,44.3
	s-2.3,31.8-7,44.6c-4.6,12.9-11.3,22.9-19.9,30.1S183.5,267.2,171.6,267.2L171.6,267.2z M171.6,241.8c12.4,0,21.6-5.6,27.6-16.8
	c6-11.2,9.1-25.7,9.1-43.5s-3.1-32.9-9.2-43.7c-6.1-10.8-15.3-16.3-27.5-16.3c-8.3,0-15.2,2.6-20.6,7.6c-5.4,5.1-9.4,12.1-12.1,21.1
	c-2.6,9-4,19.4-4,31.2c0,18.2,3.1,32.8,9.3,43.8C150.5,236.3,159.6,241.8,171.6,241.8L171.6,241.8z"/>
<path class="st0" d="M255.8,72V44.4h19.7V72H255.8z M255.8,262.7v-162h19.7v162H255.8z"/>
<path class="st0" d="M308.6,262.7v-162h17.7V144h2.2v118.6H308.6z M393.7,262.7v-81.1c0-7.7-0.5-15.1-1.5-22.2
	c-1-7.1-2.7-13.5-5.2-19.1s-5.8-10.1-10-13.4c-4.2-3.3-9.4-4.9-15.8-4.9c-4.9,0-9.4,1.1-13.4,3.4c-4,2.2-7.5,5.7-10.3,10.3
	c-2.9,4.6-5.1,10.4-6.7,17.3c-1.6,6.9-2.4,15.1-2.4,24.5l-12.9-5.4c0-15.7,2.1-29.2,6.2-40.4s10-19.9,17.6-25.9
	c7.6-6.1,16.5-9.1,26.7-9.1c7.7,0,14.3,1.7,19.8,4.9c5.5,3.3,10,7.7,13.6,13.1c3.6,5.4,6.5,11.6,8.5,18.3c2.1,6.8,3.5,13.6,4.4,20.6
	s1.3,13.5,1.3,19.7v89.5L393.7,262.7L393.7,262.7z"/>
<path class="st0" d="M505.2,267.2c-12.3,0-23.2-3.5-32.6-10.4s-16.8-16.6-22.2-29c-5.4-12.4-8-27.1-8-43.9V1.8l19.9-0.1v180
	c0,10.2,1.3,19.1,3.8,26.6c2.5,7.6,5.9,13.8,10.1,18.8c4.2,5,8.8,8.7,13.9,11.2c5,2.4,10.1,3.7,15.1,3.7s10.2-1.2,15.3-3.8
	c5.1-2.5,9.7-6.2,13.9-11.2s7.5-11.2,10-18.8c2.5-7.6,3.8-16.4,3.8-26.6V1.7H568v182.2c0,16.7-2.7,31.3-8,43.8
	c-5.3,12.5-12.7,22.2-22.2,29.1C528.4,263.7,517.5,267.2,505.2,267.2L505.2,267.2z"/>
<path class="st0" d="M598.9,334.7v-234h17.6v119.2h2.2v114.8H598.9L598.9,334.7z M653.9,267.2c-11.2,0-20.7-3.8-28.3-11.3
	c-7.7-7.6-13.5-17.8-17.4-30.8c-4-12.9-5.9-27.5-5.9-43.6s2-30.9,5.9-43.8c3.9-12.9,9.8-23.1,17.5-30.4c7.7-7.4,17.2-11.1,28.4-11.1
	s20.6,3.7,28.6,11.2c8,7.4,14.1,17.6,18.4,30.5c4.3,12.9,6.4,27.4,6.4,43.6s-2.1,30.8-6.4,43.6c-4.3,12.9-10.4,23.1-18.4,30.7
	C674.6,263.4,665,267.2,653.9,267.2z M651.4,242.7c7.9,0,14.4-2.7,19.6-8.1c5.2-5.4,9-12.7,11.6-22c2.6-9.2,3.9-19.6,3.9-31.1
	s-1.3-21.7-3.8-30.9c-2.5-9.2-6.5-16.5-11.7-21.9c-5.3-5.4-12-8.1-20.1-8.1s-14.2,2.6-19.2,7.7c-5.1,5.1-8.9,12.3-11.4,21.4
	c-2.5,9.1-3.8,19.7-3.8,31.7s1.2,22.3,3.7,31.6c2.5,9.2,6.3,16.5,11.5,21.8C636.8,240.1,643.4,242.7,651.4,242.7L651.4,242.7z"/>
<line class="st1" x1="67.6" y1="8.5" x2="462.3" y2="8.7"/>
<line class="st1" x1="68" y1="327.5" x2="618.3" y2="327.7"/>
</svg>
